<svg width="1280" height="720" viewBox="0 0 1280 720" fill="none" xmlns="http://www.w3.org/2000/svg" role="img" aria-labelledby="title desc">
  <title id="title">Readable app preview</title>
  <desc id="desc">A stylized GitHub preview showing Readable's calm notes interface, large reading typography, and local-first features.</desc>
  <defs>
    <linearGradient id="bg" x1="88" y1="58" x2="1184" y2="664" gradientUnits="userSpaceOnUse">
      <stop stop-color="#F4EEE5"/>
      <stop offset="1" stop-color="#E2D2BC"/>
    </linearGradient>
    <linearGradient id="panel" x1="222" y1="112" x2="1047" y2="627" gradientUnits="userSpaceOnUse">
      <stop stop-color="#FFFDF9"/>
      <stop offset="1" stop-color="#F8F3EA"/>
    </linearGradient>
    <linearGradient id="accent" x1="0" y1="0" x2="1" y2="1">
      <stop stop-color="#C36A3D"/>
      <stop offset="1" stop-color="#7E4D38"/>
    </linearGradient>
    <filter id="shadow" x="170" y="78" width="940" height="580" filterUnits="userSpaceOnUse" color-interpolation-filters="sRGB">
      <feFlood flood-opacity="0" result="BackgroundImageFix"/>
      <feColorMatrix in="SourceAlpha" type="matrix" values="0 0 0 0 0 0 0 0 0 0 0 0 0 0 0 0 0 0 127 0" result="hardAlpha"/>
      <feOffset dx="0" dy="20"/>
      <feGaussianBlur stdDeviation="22"/>
      <feColorMatrix type="matrix" values="0 0 0 0 0.39 0 0 0 0 0.28 0 0 0 0 0.2 0 0 0 0.18 0"/>
      <feBlend mode="normal" in2="BackgroundImageFix" result="effect1_dropShadow_0_1"/>
      <feBlend mode="normal" in="SourceGraphic" in2="effect1_dropShadow_0_1" result="shape"/>
    </filter>
    <style>
      .label { font: 600 20px -apple-system,BlinkMacSystemFont,'Segoe UI',sans-serif; fill: #8A604A; letter-spacing: 0.04em; text-transform: uppercase; }
      .hero { font: 700 54px -apple-system,BlinkMacSystemFont,'Segoe UI',sans-serif; fill: #2F241D; }
      .body { font: 400 24px -apple-system,BlinkMacSystemFont,'Segoe UI',sans-serif; fill: #58463A; }
      .chip { font: 600 20px -apple-system,BlinkMacSystemFont,'Segoe UI',sans-serif; fill: #7B5644; }
      .uiTitle { font: 700 28px -apple-system,BlinkMacSystemFont,'Segoe UI',sans-serif; fill: #2F241D; }
      .uiBody { font: 500 20px -apple-system,BlinkMacSystemFont,'Segoe UI',sans-serif; fill: #574539; }
      .uiMeta { font: 600 18px -apple-system,BlinkMacSystemFont,'Segoe UI',sans-serif; fill: #9A7B67; }
      .noteTitle { font: 700 34px -apple-system,BlinkMacSystemFont,'Segoe UI',sans-serif; fill: #2E231C; }
      .noteBody { font: 500 25px -apple-system,BlinkMacSystemFont,'Segoe UI',sans-serif; fill: #46362C; }
      .tiny { font: 600 18px -apple-system,BlinkMacSystemFont,'Segoe UI',sans-serif; fill: #A2826D; }
    </style>
  </defs>

  <rect width="1280" height="720" rx="36" fill="url(#bg)"/>
  <circle cx="1088" cy="132" r="96" fill="#EED8BF"/>
  <circle cx="1160" cy="550" r="128" fill="#E8CCAF"/>
  <circle cx="138" cy="626" r="110" fill="#E9D4BE"/>

  <text x="112" y="130" class="label">Readable</text>
  <text x="112" y="198" class="hero">A calmer notes app for reading things back.</text>
  <text x="112" y="244" class="body">Built in SwiftUI with larger reading type, more breathing room,</text>
  <text x="112" y="276" class="body">local-first notes, and read-aloud support.</text>

  <rect x="112" y="320" width="176" height="52" rx="26" fill="#F7EBDC"/>
  <text x="142" y="353" class="chip">Local-first</text>
  <rect x="304" y="320" width="196" height="52" rx="26" fill="#F7EBDC"/>
  <text x="337" y="353" class="chip">Read aloud</text>
  <rect x="516" y="320" width="258" height="52" rx="26" fill="#F7EBDC"/>
  <text x="548" y="353" class="chip">Comfortable spacing</text>

  <g filter="url(#shadow)">
    <rect x="220" y="116" width="840" height="500" rx="34" fill="url(#panel)"/>
    <rect x="220" y="116" width="250" height="500" rx="34" fill="#F3E8DA"/>
    <rect x="498" y="150" width="526" height="432" rx="26" fill="#FFFDFB" stroke="#E7D8C7" stroke-width="2"/>
    <circle cx="268" cy="152" r="10" fill="#D9B08E"/>
    <circle cx="300" cy="152" r="10" fill="#E7C5A5"/>
    <circle cx="332" cy="152" r="10" fill="#F2DCC6"/>

    <rect x="258" y="190" width="174" height="42" rx="21" fill="white"/>
    <text x="288" y="217" class="uiMeta">All notes</text>

    <rect x="250" y="258" width="190" height="108" rx="24" fill="white"/>
    <rect x="250" y="384" width="190" height="108" rx="24" fill="#FBF7F1"/>
    <rect x="250" y="510" width="190" height="76" rx="24" fill="#FBF7F1"/>

    <rect x="266" y="274" width="48" height="48" rx="16" fill="url(#accent)"/>
    <text x="336" y="298" class="uiTitle">Morning Notes</text>
    <text x="336" y="326" class="uiMeta">Pinned</text>
    <text x="266" y="350" class="uiBody">A place for things I want</text>
    <text x="266" y="376" class="uiBody">to come back to properly.</text>

    <text x="266" y="420" class="uiTitle">Voice Draft</text>
    <text x="266" y="448" class="uiMeta">Cleaned text added</text>
    <text x="266" y="474" class="uiBody">Ideas captured quickly, then</text>
    <text x="266" y="500" class="uiBody">made easier to read later on.</text>

    <text x="266" y="542" class="uiTitle">Shopping</text>
    <text x="266" y="570" class="uiBody">Simple bullet points, no clutter.</text>

    <text x="542" y="206" class="tiny">Reading view</text>
    <text x="542" y="258" class="noteTitle">Things I want to keep readable</text>
    <text x="542" y="314" class="noteBody">Readable started from a small frustration:</text>
    <text x="542" y="354" class="noteBody">I could always capture a note quickly, but</text>
    <text x="542" y="394" class="noteBody">coming back to it later felt cramped.</text>
    <text x="542" y="458" class="noteBody">So this version leans into space, calmer</text>
    <text x="542" y="498" class="noteBody">type, and read-aloud support when reading</text>
    <text x="542" y="538" class="noteBody">feels harder than it should.</text>

    <rect x="846" y="196" width="142" height="44" rx="22" fill="#F8EEDF"/>
    <text x="878" y="224" class="uiMeta">Read aloud</text>
  </g>
</svg>
